<svg width="21" height="21" viewBox="0 0 21 21" fill="none" xmlns="http://www.w3.org/2000/svg">
<mask id="mask0" style="mask-type:alpha" maskUnits="userSpaceOnUse" x="0" y="0" width="21" height="21">
<path fill-rule="evenodd" clip-rule="evenodd" d="M0.000488281 0.000183105H20.5001V20.4997H0.000488281V0.000183105Z" fill="white"/>
</mask>
<g mask="url(#mask0)">
<path fill-rule="evenodd" clip-rule="evenodd" d="M2.35957 3.06067C2.36157 3.06067 2.31157 3.11266 2.24857 3.17466C2.00657 3.40966 1.50557 3.89866 1.50057 4.92167C1.49257 6.35266 2.43357 9.00966 6.96457 13.5397C11.4746 18.0477 14.1276 18.9997 15.5616 18.9997H15.5826C16.6056 18.9947 17.0936 18.4927 17.3296 18.2517C17.4016 18.1777 17.4596 18.1237 17.5006 18.0897C18.4966 17.0877 19.0066 16.3417 19.0016 15.8637C18.9946 15.3757 18.3876 14.7987 17.5486 14.0007C17.2816 13.7467 16.9916 13.4707 16.6856 13.1647C15.8926 12.3737 15.4996 12.5087 14.6356 12.8127C13.4406 13.2317 11.8006 13.8017 9.25257 11.2527C6.70057 8.70267 7.27157 7.06466 7.68957 5.86967C7.99157 5.00566 8.12957 4.61167 7.33557 3.81767C7.02457 3.50767 6.74557 3.21367 6.48857 2.94367C5.69557 2.10967 5.12357 1.50666 4.63857 1.49967H4.63057C4.15157 1.49967 3.40757 2.01167 2.35457 3.06467C2.35757 3.06167 2.35857 3.06067 2.35957 3.06067ZM15.5626 20.4997C13.0706 20.4997 9.82157 18.5157 5.90457 14.6007C1.97257 10.6697 -0.0144274 7.41067 0.000572575 4.91367C0.00957257 3.26367 0.874573 2.41866 1.19957 2.10167C1.21657 2.08067 1.27457 2.02366 1.29457 2.00366C2.72857 0.568665 3.69557 -0.0113349 4.65757 -0.00033494C5.77457 0.0146651 6.56957 0.850665 7.57557 1.90967C7.82457 2.17167 8.09457 2.45667 8.39557 2.75666C9.85557 4.21667 9.43957 5.40767 9.10557 6.36367C8.74157 7.40667 8.42657 8.30667 10.3126 10.1927C12.2006 12.0787 13.1006 11.7637 14.1396 11.3967C15.0966 11.0627 16.2846 10.6447 17.7466 12.1047C18.0426 12.4007 18.3236 12.6677 18.5826 12.9147C19.6466 13.9257 20.4866 14.7247 20.5006 15.8447C20.5126 16.7997 19.9326 17.7727 18.5006 19.2057L17.8666 18.7757L18.4026 19.2997C18.0856 19.6247 17.2416 20.4907 15.5906 20.4997H15.5626Z" fill="#3D3D3D"/>
</g>
</svg>
