<svg width="40" height="40" viewBox="0 0 40 40" fill="none" xmlns="http://www.w3.org/2000/svg">
<g id="Iconly/Bulk/Graph">
<g id="Graph">
<path id="Path" d="M16.9214 9.25917C17.0063 9.43195 17.0624 9.61697 17.0875 9.80719L17.5515 16.7071L17.7819 20.1751C17.7843 20.5317 17.8402 20.8861 17.9479 21.2267C18.2262 21.8876 18.8954 22.3076 19.6236 22.2783L30.7191 21.5525C31.1995 21.5446 31.6635 21.7243 32.0089 22.0521C32.2967 22.3252 32.4826 22.6826 32.5411 23.0669L32.5608 23.3003C32.1016 29.6581 27.4321 34.9611 21.0874 36.3299C14.7428 37.6988 8.2366 34.8071 5.10135 29.2248C4.19748 27.603 3.63291 25.8204 3.4408 23.9816C3.36054 23.4373 3.32521 22.8874 3.33513 22.3375C3.32522 15.5212 8.17928 9.62822 14.9741 8.20757C15.7918 8.08023 16.5935 8.51316 16.9214 9.25917Z" fill="white"/>
<path id="Path_2" opacity="0.4" d="M21.4503 3.33468C29.0501 3.52802 35.4375 8.99296 36.6669 16.3538L36.6552 16.4081L36.6216 16.4871L36.6263 16.7039C36.6089 16.9912 36.498 17.2675 36.3069 17.4908C36.1078 17.7233 35.8358 17.8817 35.5363 17.9432L35.3536 17.9682L22.5523 18.7977C22.1265 18.8397 21.7025 18.7023 21.3859 18.4199C21.122 18.1845 20.9533 17.8668 20.9056 17.5244L20.0464 4.74175C20.0314 4.69853 20.0314 4.65167 20.0464 4.60845C20.0581 4.2561 20.2132 3.92305 20.477 3.6837C20.7408 3.44435 21.0913 3.31865 21.4503 3.33468Z" fill="white"/>
</g>
</g>
</svg>
