<svg width="443" height="222" viewBox="0 0 443 222" fill="none" xmlns="http://www.w3.org/2000/svg">
<path d="M443 0.5C443 29.5878 437.271 58.3908 426.139 85.2644C415.008 112.138 398.692 136.556 378.124 157.124C357.556 177.692 333.138 194.008 306.264 205.139C279.391 216.271 250.588 222 221.5 222C192.412 222 163.609 216.271 136.736 205.139C109.862 194.008 85.444 177.692 64.8758 157.124C44.3077 136.556 27.9921 112.138 16.8607 85.2644C5.72926 58.3907 -2.54294e-06 29.5878 0 0.499985H65.0655C65.0655 21.0433 69.1118 41.3854 76.9734 60.3649C84.8349 79.3444 96.3578 96.5896 110.884 111.116C125.41 125.642 142.656 137.165 161.635 145.027C180.615 152.888 200.957 156.934 221.5 156.934C242.043 156.935 262.385 152.888 281.365 145.027C300.344 137.165 317.59 125.642 332.116 111.116C346.642 96.5896 358.165 79.3444 366.027 60.3649C373.888 41.3854 377.935 21.0433 377.935 0.5H443Z" fill="#A341F8"/>
</svg>
