<svg width="40" height="40" viewBox="0 0 40 40" fill="none" xmlns="http://www.w3.org/2000/svg">
<g id="Iconly/Bulk/Plus">
<g id="Plus">
<path id="Path_34200" opacity="0.4" d="M27.7779 3.33334H12.2224C6.54831 3.33334 3.3335 6.54815 3.3335 12.2222V27.7778C3.3335 33.437 6.5335 36.6667 12.2224 36.6667H27.7779C33.452 36.6667 36.6668 33.437 36.6668 27.7778V12.2222C36.6668 6.54815 33.452 3.33334 27.7779 3.33334Z" fill="white"/>
<path id="Path_34201" d="M25.5343 21.1806H21.2494V25.4283C21.2494 26.1122 20.6901 26.6667 20.0002 26.6667C19.3102 26.6667 18.751 26.1122 18.751 25.4283V21.1806H14.4661C13.8225 21.1145 13.3335 20.5769 13.3335 19.9355C13.3335 19.2942 13.8225 18.7566 14.4661 18.6905H18.7375V14.4561C18.8042 13.8181 19.3465 13.3333 19.9934 13.3333C20.6404 13.3333 21.1827 13.8181 21.2494 14.4561V18.6905H25.5343C26.1778 18.7566 26.6668 19.2942 26.6668 19.9355C26.6668 20.5769 26.1778 21.1145 25.5343 21.1806Z" fill="white"/>
</g>
</g>
</svg>
