<svg width="24" height="24" viewBox="0 0 24 24" fill="none" xmlns="http://www.w3.org/2000/svg">
<path fill-rule="evenodd" clip-rule="evenodd" d="M5.38669 21.8214L0.897306 22.9991L2.09559 18.622L1.81356 18.1732C0.626192 16.2847 -0.000918989 14.1019 1.0108e-06 11.8606C0.00259613 5.32067 5.32375 0 11.8666 0C15.0348 0.00109848 18.013 1.23646 20.2525 3.47855C22.492 5.72065 23.7246 8.70077 23.7234 11.8702C23.7207 18.4107 18.3997 23.7319 11.8619 23.7319H11.8571C9.72862 23.7311 7.64101 23.1592 5.81983 22.0785L5.38669 21.8214ZM19.0516 15.2647C18.9625 15.1159 18.7248 15.0267 18.3682 14.8482C18.0116 14.6697 16.2585 13.8071 15.9316 13.688C15.6048 13.5691 15.3669 13.5096 15.1293 13.8665C14.8916 14.2234 14.2082 15.0267 14.0002 15.2647C13.7922 15.5026 13.5841 15.5325 13.2277 15.3539C12.8711 15.1755 11.7221 14.7989 10.3601 13.584C9.3 12.6385 8.58435 11.4708 8.37634 11.1138C8.16834 10.7568 8.35417 10.5639 8.53268 10.3861C8.69311 10.2263 8.8893 9.9695 9.06758 9.76134C9.24586 9.55318 9.30528 9.40434 9.42415 9.16652C9.543 8.92843 9.48359 8.72027 9.39442 8.54177C9.30528 8.36327 8.59215 6.60807 8.295 5.89407C8.00553 5.19874 7.71157 5.29293 7.4927 5.28195C7.28494 5.27151 7.04696 5.26932 6.80926 5.26932C6.57156 5.26932 6.18521 5.35857 5.85837 5.71557C5.53152 6.07257 4.61034 6.93527 4.61034 8.69034C4.61034 10.4455 5.88807 12.1412 6.06638 12.3791C6.24466 12.6172 8.58081 16.2189 12.1579 17.7634C13.0087 18.1309 13.6728 18.3503 14.1908 18.5146C15.045 18.7861 15.8224 18.7477 16.4367 18.6559C17.1219 18.5536 18.5464 17.7933 18.8437 16.9604C19.1407 16.1273 19.1407 15.4134 19.0516 15.2647Z" fill="#3D3D3D"/>
</svg>
